# xmcd
#
# Track frame offsets:
#	150
#	13600
#	26150
#	38735
#	52459
#	72516
#	87428
#	98805
#	116530
#	126166
#	145588
#	158017
#	172138
#
# Disc length: 2500 seconds
#
# Revision: 0
# Processed by: cddbd v1.5.1PL2 Copyright (c) Steve Scherf et al.
# Submitted via: dBpowerAMP V4.0
#
DISCID=b609c20d
DTITLE=Onkel Tuka - Geriljagospel
DYEAR=2006
DGENRE=Bluegrass
TTITLE0=To Hender
TTITLE1=Det er bare sånn det er
TTITLE2=På den andre siden av fjorden
TTITLE3=Kanaans land
TTITLE4=Hvis jeg gir min sjel
TTITLE5=Jeg jobber på en bygning
TTITLE6=Den gode gamle trua
TTITLE7=Hva holder de på med i himmelen i dag
TTITLE8=Alv Uddas tonge ferd mot himmelen
TTITLE9=Ja, jeg lengter hjem
TTITLE10=Hvis krafta går ut av din tro
TTITLE11=Velsigna er de arme sjele
TTITLE12=Jeg er på vei til himmelen
EXTD=\n
EXTT0=
EXTT1=
EXTT2=
EXTT3=
EXTT4=
EXTT5=
EXTT6=
EXTT7=
EXTT8=
EXTT9=
EXTT10=
EXTT11=
EXTT12=
PLAYORDER=
